<svg width="360" height="80" viewBox="0 0 360 80" xmlns="http://www.w3.org/2000/svg"><g fill="none" fill-rule="evenodd"><path d="M127.896 62.508l2.22 6.037 6.517-17.144c.098-.257.277-.466.534-.627.256-.162.53-.242.82-.242.452 0 .815.155 1.087.46.273.307.41.636.41.99 0 .193-.05.386-.146.58-.03.064-.15.394-.36.99-.212.595-.598 1.65-1.16 3.162-.563 1.514-1.336 3.567-2.318 6.157-.983 2.59-2.246 5.883-3.79 9.876-.13.354-.315.643-.555.867-.243.227-.588.338-1.04.338-.45 0-.814-.134-1.084-.41-.276-.272-.46-.536-.557-.794-.418-1.13-.804-2.215-1.158-3.262-.353-1.045-.693-2.018-1.012-2.92-.356.902-.72 1.875-1.088 2.92-.37 1.047-.783 2.133-1.23 3.262-.13.354-.316.643-.556.867-.244.227-.59.338-1.04.338-.45 0-.813-.134-1.087-.41-.273-.272-.46-.536-.555-.794l-3.43-9.394c-.932-2.56-1.688-4.618-2.27-6.18-.578-1.56-.997-2.697-1.255-3.406-.257-.707-.385-1.078-.385-1.11-.098-.193-.144-.418-.144-.676 0-.418.12-.765.36-1.04.245-.272.59-.41 1.04-.41.353 0 .657.08.918.243.255.16.434.37.53.628l6.277 17.145 2.27-6.04s.54-1.36 1.644-1.36c1.104 0 1.592 1.363 1.592 1.363M160.057 62.314c0-1.19-.225-2.318-.68-3.38-.45-1.063-1.07-1.987-1.857-2.777-.79-.788-1.714-1.41-2.776-1.86-1.063-.45-2.19-.675-3.382-.675-1.19 0-2.31.226-3.353.676-1.048.45-1.968 1.07-2.754 1.86-.79.79-1.41 1.713-1.862 2.775-.45 1.063-.68 2.19-.68 3.38 0 1.193.23 2.312.68 3.357.452 1.047 1.072 1.965 1.862 2.753.786.79 1.706 1.41 2.753 1.86 1.043.45 2.162.676 3.352.676 1.162 0 2.256-.22 3.286-.653 1.027-.436 1.937-1.04 2.727-1.813.79-.77 1.416-1.68 1.882-2.728.467-1.045.734-2.196.8-3.452zm0 7.245c-1.064 1.188-2.345 2.212-3.84 3.064-1.498.854-3.113 1.28-4.855 1.28-1.61 0-3.115-.29-4.512-.87-1.4-.577-2.634-1.384-3.695-2.415-1.066-1.03-1.902-2.253-2.512-3.67-.61-1.417-.917-2.962-.917-4.636 0-1.61.297-3.13.893-4.564.595-1.43 1.416-2.68 2.463-3.743 1.045-1.06 2.284-1.9 3.718-2.51 1.43-.61 2.988-.917 4.66-.917 1.546 0 3.017.313 4.418.94 1.4.63 2.632 1.474 3.695 2.537 1.06 1.06 1.908 2.303 2.535 3.717.626 1.42.94 2.93.94 4.54v10.19c0 .418-.144.77-.434 1.06-.29.29-.642.436-1.06.436-.422 0-.774-.145-1.065-.436-.29-.29-.433-.642-.433-1.06V69.56zM168.36 44.59c0-.416.147-.772.433-1.06.292-.29.646-.435 1.066-.435.418 0 .77.144 1.06.434.292.288.436.644.436 1.06v5.893h3.22c.424 0 .78.144 1.072.434.294.29.44.645.44 1.063 0 .418-.146.773-.44 1.062-.292.29-.648.434-1.07.434h-3.222v18.98c0 .42-.142.773-.428 1.062-.284.29-.634.433-1.046.433-.41 0-.76-.142-1.045-.432-.286-.29-.427-.643-.427-1.06V53.475h-3.218c-.426 0-.784-.143-1.075-.434-.29-.29-.44-.644-.44-1.062 0-.418.147-.772.435-1.063.29-.29.645-.434 1.063-.434h3.186V44.59M187.194 50.627c1.287 0 2.45.194 3.477.58 1.033.387 1.918.83 2.66 1.328.74.5 1.31.998 1.712 1.498.402.498.602.877.602 1.134 0 .354-.144.66-.43.917-.294.26-.614.386-.968.386-.42 0-.774-.144-1.063-.434-.803-.708-1.722-1.28-2.752-1.714-1.03-.434-2.14-.652-3.333-.652-1.19 0-2.308.225-3.353.676-1.05.45-1.965 1.07-2.754 1.86-.788.79-1.407 1.714-1.86 2.776-.45 1.063-.674 2.19-.674 3.38 0 1.192.225 2.31.674 3.357.453 1.046 1.072 1.962 1.86 2.753.79.79 1.705 1.406 2.754 1.857 1.045.45 2.164.676 3.353.676 1.193 0 2.303-.217 3.334-.65 1.03-.436 1.95-1.04 2.753-1.81.29-.292.644-.437 1.063-.437.387 0 .73.137 1.04.41.305.273.458.62.458 1.04 0 .254-.187.633-.556 1.13-.37.5-.926.994-1.668 1.474-.74.484-1.646.902-2.727 1.257-1.08.355-2.312.53-3.696.53-1.607 0-3.113-.288-4.514-.868-1.4-.578-2.63-1.383-3.693-2.413-1.062-1.03-1.9-2.254-2.51-3.672-.612-1.416-.918-2.96-.918-4.637 0-1.607.295-3.112.894-4.512.594-1.402 1.413-2.624 2.46-3.67 1.045-1.047 2.286-1.884 3.72-2.512 1.43-.628 2.984-.973 4.658-1.04M197.723 44.59c0-.416.147-.772.435-1.06.29-.29.64-.435 1.063-.435.42 0 .772.144 1.064.434.288.288.433.644.433 1.06v8.115c.74-.645 1.593-1.16 2.56-1.546.965-.387 1.996-.58 3.09-.58 1.192 0 2.32.225 3.38.676 1.064.45 1.99 1.07 2.778 1.86.79.788 1.41 1.713 1.86 2.775.45 1.064.673 2.19.673 3.38v13.187c0 .418-.144.772-.433 1.06-.29.29-.645.434-1.06.434-.422 0-.774-.142-1.065-.432-.29-.29-.435-.643-.435-1.06V59.27c0-.77-.154-1.503-.456-2.195-.31-.692-.72-1.296-1.235-1.81-.515-.517-1.12-.92-1.81-1.208-.692-.29-1.425-.435-2.197-.435-.774 0-1.498.144-2.173.435-.677.29-1.272.675-1.787 1.158-.517.483-.917 1.055-1.207 1.715-.29.66-.45 1.36-.483 2.1v13.427c0 .45-.14.81-.41 1.084-.274.276-.636.41-1.086.41-.42 0-.766-.142-1.038-.432-.274-.29-.427-.643-.46-1.06V44.59M216.65 71.973c0-.547.196-1.014.58-1.4.39-.387.853-.58 1.406-.58.545 0 1.01.193 1.395.58.39.386.584.853.584 1.4 0 .547-.195 1.013-.583 1.398-.383.39-.85.58-1.394.58-.553 0-1.017-.19-1.405-.58-.384-.384-.58-.85-.58-1.397M241.62 62.314c-.067-1.255-.33-2.414-.798-3.477-.466-1.063-1.084-1.98-1.858-2.753-.772-.772-1.673-1.376-2.704-1.81-1.03-.435-2.125-.652-3.286-.652-1.188 0-2.317.226-3.38.676-1.06.45-1.987 1.07-2.776 1.86-.79.79-1.408 1.713-1.86 2.775-.448 1.063-.674 2.19-.674 3.38 0 1.193.226 2.312.674 3.357.452 1.047 1.07 1.965 1.86 2.753.79.79 1.716 1.41 2.777 1.86 1.062.45 2.19.676 3.38.676s2.31-.226 3.356-.678c1.046-.45 1.964-1.07 2.754-1.86.79-.787 1.408-1.705 1.86-2.752.45-1.045.675-2.164.675-3.356zm0-17.723c0-.416.144-.772.434-1.06.29-.29.643-.435 1.063-.435.42 0 .77.144 1.064.434.288.288.432.644.432 1.06v27.867c0 .418-.144.772-.43 1.06-.294.29-.646.434-1.065.434-.42 0-.774-.142-1.063-.432-.29-.29-.435-.643-.435-1.06v-2.272l-.436.433c-1.06 1.03-2.302 1.837-3.72 2.415-1.414.578-2.913.87-4.49.87-1.64 0-3.17-.307-4.585-.92-1.418-.61-2.65-1.448-3.696-2.51-1.046-1.062-1.875-2.293-2.487-3.695-.614-1.4-.915-2.887-.915-4.466 0-1.61.31-3.12.937-4.54.63-1.414 1.476-2.656 2.537-3.717 1.062-1.063 2.29-1.908 3.693-2.536 1.4-.627 2.875-.94 4.418-.94 1.803.064 3.446.524 4.927 1.375 1.48.854 2.75 1.86 3.814 3.02V44.59zM266.634 60.72c-.192-.997-.547-1.93-1.062-2.8-.516-.87-1.153-1.618-1.906-2.246-.758-.628-1.612-1.127-2.562-1.497-.948-.37-1.957-.555-3.017-.555-1.064 0-2.07.186-3.02.555-.947.37-1.804.87-2.558 1.497-.76.628-1.386 1.376-1.884 2.246-.5.87-.843 1.803-1.04 2.8h17.048zm-17.095 2.994c.16 1.03.5 1.99 1.012 2.873.516.888 1.15 1.65 1.91 2.296.754.642 1.616 1.15 2.58 1.52.967.37 1.98.556 3.045.556 1.193 0 2.302-.22 3.332-.653 1.03-.436 1.946-1.04 2.752-1.813.29-.29.643-.433 1.064-.433.416 0 .768.145 1.06.434.29.29.436.647.436 1.065 0 .416-.146.77-.436 1.06-1.06 1.19-2.263 2.036-3.598 2.536s-2.872.748-4.61.748c-1.61 0-3.117-.29-4.515-.87-1.402-.577-2.635-1.384-3.695-2.415-1.064-1.03-1.9-2.253-2.51-3.67-.613-1.417-.92-2.962-.92-4.636 0-1.61.3-3.115.894-4.515.598-1.402 1.415-2.624 2.463-3.67 1.046-1.047 2.286-1.884 3.72-2.513 1.43-.627 2.983-.973 4.66-1.037 1.513 0 2.968.306 4.368.917 1.4.61 2.633 1.45 3.696 2.51 1.06 1.063 1.914 2.295 2.557 3.696.643 1.4.967 2.905.967 4.515 0 .482-.164.852-.482 1.11-.324.258-.662.386-1.02.386H249.54z" fill="#F6F6F6"/><path d="M27.33 25.455c0-1.19-.226-2.32-.676-3.38-.45-1.063-1.07-1.988-1.86-2.777-.79-.79-1.713-1.41-2.776-1.86-1.062-.45-2.19-.675-3.38-.675s-2.31.225-3.356.676c-1.047.45-1.965 1.07-2.753 1.858-.79.79-1.41 1.714-1.86 2.776-.45 1.062-.676 2.19-.676 3.38 0 1.192.225 2.31.675 3.356.45 1.047 1.07 1.965 1.86 2.753.787.79 1.705 1.41 2.752 1.86 1.046.45 2.165.676 3.356.676 1.16 0 2.253-.218 3.284-.652 1.03-.436 1.938-1.04 2.727-1.813.788-.772 1.416-1.68 1.884-2.728.466-1.046.73-2.197.797-3.452zm0 7.244c-1.062 1.19-2.342 2.212-3.84 3.065-1.496.853-3.114 1.28-4.852 1.28-1.61 0-3.115-.29-4.515-.87-1.4-.578-2.632-1.384-3.694-2.415-1.063-1.03-1.9-2.253-2.512-3.67C7.306 28.674 7 27.13 7 25.455c0-1.61.297-3.13.894-4.564.594-1.43 1.415-2.68 2.462-3.742 1.047-1.062 2.285-1.9 3.718-2.51 1.433-.612 2.987-.917 4.66-.917 1.547 0 3.018.314 4.42.942 1.4.628 2.632 1.472 3.694 2.535 1.062 1.062 1.907 2.303 2.534 3.718.628 1.418.943 2.93.943 4.54v10.19c0 .418-.146.772-.435 1.06-.29.29-.644.436-1.063.436-.418 0-.772-.144-1.062-.435-.29-.288-.434-.642-.434-1.06v-2.946zM36.022 25.89c.032 1.158.29 2.237.772 3.235.483.998 1.11 1.867 1.883 2.608.773.74 1.675 1.327 2.706 1.762 1.03.435 2.124.652 3.283.652 1.19 0 2.318-.225 3.38-.676 1.062-.45 1.988-1.068 2.777-1.857.788-.79 1.41-1.707 1.86-2.754.45-1.047.675-2.166.675-3.358 0-1.19-.225-2.317-.676-3.38-.45-1.062-1.07-1.986-1.86-2.777-.788-.787-1.714-1.407-2.776-1.858-1.062-.45-2.19-.676-3.38-.676-1.16 0-2.253.218-3.283.653-1.03.435-1.933 1.037-2.706 1.81-.772.772-1.4 1.69-1.883 2.754-.48 1.062-.74 2.22-.772 3.475v.387zM33.028 7.73c0-.418.145-.774.435-1.063.29-.29.643-.435 1.062-.435.418 0 .77.145 1.062.434.29.288.435.644.435 1.062v10.43c1.063-1.158 2.334-2.165 3.816-3.017 1.48-.854 3.12-1.31 4.924-1.377 1.547 0 3.02.314 4.42.942 1.4.627 2.63 1.473 3.693 2.536 1.063 1.062 1.908 2.3 2.536 3.718.63 1.416.942 2.93.942 4.538 0 1.578-.306 3.068-.917 4.468-.612 1.4-1.44 2.632-2.487 3.694-1.046 1.062-2.278 1.9-3.694 2.51-1.417.614-2.945.918-4.588.918-1.738 0-3.35-.33-4.828-.99-1.482-.66-2.753-1.57-3.816-2.73v2.225c0 .42-.145.772-.435 1.062-.29.288-.644.432-1.062.432-.42 0-.772-.144-1.062-.433-.29-.29-.435-.644-.435-1.063V7.732zM78.276 25.165c-.064-1.158-.33-2.246-.796-3.26-.468-1.014-1.095-1.898-1.884-2.656-.788-.756-1.7-1.352-2.73-1.787-1.03-.435-2.122-.652-3.282-.652-1.192 0-2.31.226-3.356.677-1.046.45-1.964 1.07-2.752 1.858-.79.79-1.41 1.715-1.86 2.778-.45 1.062-.676 2.19-.676 3.38s.225 2.31.676 3.356c.45 1.046 1.07 1.963 1.86 2.753.788.79 1.706 1.407 2.752 1.858 1.046.452 2.164.677 3.356.677 1.16 0 2.253-.217 3.283-.652 1.03-.435 1.94-1.02 2.73-1.762.788-.74 1.415-1.61 1.883-2.608.466-.998.732-2.077.796-3.236v-.725zm0-9.513c0-.42.145-.774.435-1.062.29-.29.644-.435 1.063-.435.42 0 .773.145 1.063.435.29.288.435.643.435 1.062v18.64c0 1.578-.306 3.067-.917 4.466-.612 1.402-1.44 2.633-2.487 3.694-1.046 1.064-2.278 1.9-3.694 2.513-1.417.61-2.946.916-4.588.916-1.64 0-3.155-.288-4.54-.868-1.383-.58-2.606-1.384-3.67-2.414l-.047-.048c-.29-.29-.435-.63-.435-1.014 0-.42.153-.78.46-1.087.305-.307.667-.46 1.086-.46.418 0 .755.128 1.013.386.805.805 1.723 1.433 2.754 1.883 1.03.45 2.156.676 3.38.676 1.19 0 2.32-.225 3.38-.677 1.062-.45 1.99-1.07 2.777-1.86.79-.788 1.41-1.707 1.86-2.752.45-1.045.676-2.164.676-3.356V33.23c-1.062 1.19-2.342 2.133-3.838 2.825-1.497.692-3.115 1.037-4.854 1.037-1.61 0-3.115-.29-4.515-.87-1.4-.578-2.632-1.382-3.695-2.412-1.063-1.03-1.9-2.254-2.512-3.67-.61-1.417-.916-2.962-.916-4.638 0-1.61.297-3.113.893-4.514.595-1.4 1.416-2.624 2.462-3.67 1.046-1.047 2.286-1.883 3.72-2.51 1.43-.63 2.984-.974 4.66-1.04 1.672.032 3.25.403 4.73 1.11 1.482.71 2.77 1.676 3.864 2.898v-2.124zM103.484 23.862c-.193-.998-.548-1.932-1.064-2.802-.514-.87-1.15-1.617-1.906-2.246-.757-.627-1.61-1.126-2.558-1.497-.95-.37-1.958-.554-3.02-.554s-2.068.185-3.017.554c-.95.37-1.804.87-2.56 1.497-.758.63-1.385 1.377-1.884 2.246-.5.87-.845 1.804-1.04 2.802h17.048zM86.39 26.854c.16 1.032.5 1.99 1.014 2.873.514.888 1.15 1.652 1.907 2.296.756.644 1.62 1.152 2.585 1.52.965.37 1.98.556 3.04.556 1.192 0 2.303-.218 3.333-.652 1.03-.436 1.948-1.04 2.752-1.813.29-.29.645-.433 1.065-.433.417 0 .77.143 1.062.433.29.29.434.647.434 1.064 0 .417-.144.77-.433 1.06-1.062 1.192-2.264 2.037-3.598 2.536-1.337.5-2.874.748-4.614.748-1.61 0-3.114-.29-4.515-.87-1.4-.577-2.63-1.383-3.692-2.414-1.063-1.03-1.9-2.253-2.51-3.67-.614-1.416-.918-2.96-.918-4.635 0-1.61.297-3.116.893-4.516.595-1.4 1.416-2.624 2.462-3.67 1.046-1.047 2.286-1.883 3.718-2.512 1.432-.628 2.986-.973 4.66-1.037 1.514 0 2.97.306 4.372.917 1.398.612 2.63 1.45 3.693 2.51 1.062 1.064 1.915 2.296 2.56 3.696.643 1.4.965 2.906.965 4.515 0 .483-.163.853-.483 1.11-.32.258-.66.386-1.013.386H86.39zM119.806 16.763c-1.19 0-2.31.225-3.355.676-1.047.45-1.965 1.07-2.752 1.858-.79.79-1.41 1.714-1.86 2.776-.45 1.062-.675 2.19-.675 3.38 0 1.192.224 2.31.675 3.356.45 1.047 1.07 1.965 1.86 2.753.787.79 1.705 1.41 2.753 1.86 1.045.45 2.166.676 3.356.676 1.192 0 2.318-.226 3.38-.677 1.063-.45 1.988-1.07 2.777-1.86.787-.788 1.41-1.706 1.86-2.753.45-1.045.676-2.164.676-3.355 0-1.19-.228-2.32-.677-3.38-.45-1.063-1.073-1.988-1.86-2.777-.79-.79-1.714-1.41-2.777-1.86-1.062-.45-2.188-.675-3.38-.675zm.097-3.042c1.546 0 3.018.314 4.418.942 1.403.628 2.634 1.472 3.696 2.535 1.063 1.062 1.906 2.303 2.535 3.718.628 1.418.94 2.93.94 4.54 0 1.578-.304 3.067-.915 4.466-.612 1.402-1.44 2.634-2.487 3.696-1.046 1.06-2.277 1.9-3.694 2.51-1.417.612-2.945.918-4.588.918-1.61 0-3.114-.29-4.514-.87-1.4-.577-2.632-1.383-3.694-2.414-1.064-1.03-1.9-2.253-2.513-3.67-.61-1.416-.917-2.96-.917-4.635 0-1.61.298-3.116.895-4.516.595-1.4 1.414-2.624 2.46-3.67 1.047-1.047 2.288-1.883 3.72-2.512 1.432-.628 2.986-.973 4.66-1.037zM133.182 15.12c0-.417.147-.772.436-1.062.29-.29.643-.434 1.062-.434.418 0 .772.144 1.063.434.29.29.434.645.434 1.063v2.367c1.03-1.126 2.27-2.052 3.718-2.777 1.45-.725 3.025-1.086 4.732-1.086.515 0 .925.144 1.233.434.306.29.457.645.457 1.063 0 .42-.15.774-.457 1.063-.308.29-.718.434-1.233.434-1.158 0-2.238.226-3.236.676-.997.452-1.874 1.063-2.63 1.836-.756.77-1.37 1.657-1.834 2.654-.468 1-.718 2.045-.75 3.14v10.673c0 .42-.144.772-.433 1.062-.29.288-.645.432-1.063.432-.42 0-.773-.144-1.062-.433-.29-.29-.436-.644-.436-1.063V15.12M166.6 25.455c-.065-1.255-.332-2.415-.797-3.478-.467-1.062-1.086-1.98-1.86-2.752-.772-.772-1.673-1.376-2.703-1.81-1.03-.435-2.125-.652-3.284-.652-1.192 0-2.32.225-3.38.676-1.063.45-1.99 1.07-2.777 1.858-.79.79-1.41 1.714-1.86 2.776-.45 1.062-.676 2.19-.676 3.38 0 1.192.225 2.31.676 3.356.45 1.047 1.07 1.965 1.86 2.753.787.79 1.713 1.41 2.776 1.86 1.06.45 2.188.676 3.38.676 1.19 0 2.31-.226 3.356-.677 1.046-.45 1.964-1.07 2.753-1.86.79-.788 1.408-1.706 1.86-2.753.45-1.045.675-2.164.675-3.355zm0-17.723c0-.418.145-.774.436-1.063.287-.29.642-.435 1.06-.435.418 0 .774.145 1.064.434.29.288.434.644.434 1.062v27.865c0 .42-.144.772-.434 1.062-.29.288-.646.432-1.063.432-.42 0-.774-.144-1.06-.433-.292-.29-.437-.644-.437-1.063v-2.27l-.435.433c-1.063 1.03-2.3 1.837-3.718 2.415-1.417.58-2.913.87-4.49.87-1.643 0-3.172-.307-4.587-.918-1.418-.61-2.65-1.45-3.696-2.51-1.047-1.063-1.876-2.295-2.486-3.696-.613-1.398-.918-2.887-.918-4.465 0-1.61.313-3.122.94-4.54.628-1.415 1.474-2.656 2.537-3.718 1.062-1.063 2.294-1.907 3.694-2.535 1.402-.628 2.874-.94 4.42-.94 1.802.063 3.443.523 4.925 1.374 1.48.853 2.753 1.86 3.815 3.02V7.73zM172.54 15.12c0-.417.145-.772.435-1.062.29-.29.644-.434 1.062-.434.42 0 .772.144 1.063.434.29.29.434.645.434 1.063v.628c.74-.643 1.593-1.158 2.56-1.544.965-.387 1.994-.58 3.09-.58 1.19 0 2.318.226 3.38.676 1.063.452 1.987 1.07 2.776 1.86.79.788 1.41 1.713 1.86 2.775.45 1.062.677 2.19.677 3.382v13.28c0 .42-.146.772-.435 1.062-.29.288-.645.432-1.063.432-.42 0-.774-.144-1.064-.433-.29-.29-.435-.644-.435-1.063v-13.28c0-.774-.15-1.507-.457-2.198-.305-.694-.716-1.296-1.23-1.812-.516-.515-1.12-.917-1.812-1.207-.692-.29-1.422-.435-2.196-.435-.773 0-1.496.146-2.173.436-.676.29-1.27.676-1.785 1.16-.516.483-.918 1.053-1.21 1.714-.288.66-.45 1.36-.48 2.1v13.523c0 .42-.144.772-.435 1.062-.29.288-.644.432-1.063.432-.418 0-.773-.144-1.062-.433-.29-.29-.435-.644-.435-1.063V15.12M212.332 23.862c-.193-.998-.548-1.932-1.064-2.802-.514-.87-1.15-1.617-1.906-2.246-.756-.627-1.612-1.126-2.56-1.497-.95-.37-1.956-.554-3.018-.554-1.063 0-2.07.185-3.018.554-.95.37-1.804.87-2.558 1.497-.758.63-1.385 1.377-1.885 2.246-.498.87-.845 1.804-1.038 2.802h17.047zm-17.095 2.992c.16 1.032.498 1.99 1.013 2.873.515.888 1.15 1.652 1.91 2.296.755.644 1.616 1.152 2.58 1.52.968.37 1.98.556 3.044.556 1.19 0 2.302-.218 3.332-.652 1.03-.436 1.95-1.04 2.752-1.813.29-.29.644-.433 1.064-.433.416 0 .773.143 1.062.433.29.29.434.647.434 1.064 0 .417-.144.77-.434 1.06-1.062 1.192-2.263 2.037-3.598 2.536-1.337.5-2.873.748-4.612.748-1.61 0-3.115-.29-4.516-.87-1.4-.577-2.63-1.383-3.693-2.414-1.063-1.03-1.9-2.253-2.51-3.67-.613-1.416-.92-2.96-.92-4.635 0-1.61.3-3.116.895-4.516s1.416-2.624 2.462-3.67c1.046-1.047 2.286-1.883 3.718-2.512 1.433-.628 2.986-.973 4.66-1.037 1.513 0 2.97.306 4.37.917 1.4.612 2.632 1.45 3.695 2.51 1.062 1.064 1.915 2.296 2.56 3.696.644 1.4.965 2.906.965 4.515 0 .483-.16.853-.483 1.11-.322.258-.66.386-1.014.386h-18.736zM219.477 7.732c0-.418.147-.774.436-1.063.29-.29.644-.435 1.063-.435.417 0 .773.145 1.063.434.288.288.434.644.434 1.062v5.892h3.22c.422 0 .78.144 1.072.434.293.29.44.645.44 1.063 0 .42-.147.774-.44 1.063-.293.29-.65.434-1.073.434h-3.22v18.98c0 .42-.144.772-.43 1.062-.285.288-.632.432-1.043.432-.412 0-.762-.144-1.046-.433-.286-.29-.428-.644-.428-1.063v-18.98h-3.22c-.423 0-.78-.143-1.072-.434-.293-.29-.44-.644-.44-1.062 0-.417.145-.772.435-1.062.29-.29.642-.434 1.062-.434h3.185V7.732M246.668 23.862c-.194-.998-.548-1.932-1.064-2.802-.516-.87-1.15-1.617-1.907-2.246-.755-.627-1.61-1.126-2.56-1.497-.95-.37-1.953-.554-3.017-.554-1.064 0-2.07.185-3.02.554-.95.37-1.803.87-2.558 1.497-.757.63-1.385 1.377-1.884 2.246-.5.87-.845 1.804-1.038 2.802h17.048zm-17.097 2.992c.163 1.032.5 1.99 1.016 2.873.514.888 1.15 1.652 1.907 2.296.756.644 1.617 1.152 2.584 1.52.966.37 1.98.556 3.043.556 1.19 0 2.3-.218 3.332-.652 1.03-.436 1.947-1.04 2.752-1.813.29-.29.642-.433 1.062-.433.418 0 .774.143 1.062.433.29.29.434.647.434 1.064 0 .417-.143.77-.434 1.06-1.062 1.192-2.262 2.037-3.597 2.536-1.335.5-2.872.748-4.61.748-1.61 0-3.116-.29-4.518-.87-1.398-.577-2.63-1.383-3.69-2.414-1.064-1.03-1.903-2.253-2.513-3.67-.612-1.416-.92-2.96-.92-4.635 0-1.61.298-3.116.895-4.516.594-1.4 1.417-2.624 2.462-3.67 1.046-1.047 2.287-1.883 3.718-2.512 1.432-.628 2.985-.973 4.66-1.037 1.515 0 2.97.306 4.37.917 1.402.612 2.63 1.45 3.696 2.51 1.062 1.064 1.914 2.296 2.558 3.696.645 1.4.967 2.906.967 4.515 0 .483-.162.853-.482 1.11-.323.258-.662.386-1.014.386h-18.74zM252.028 15.12c0-.417.142-.772.43-1.062.294-.29.646-.434 1.064-.434.42 0 .773.144 1.06.434.295.29.436.645.436 1.063v.628c.744-.643 1.598-1.158 2.563-1.544.963-.387 1.995-.58 3.09-.58 1.192 0 2.32.226 3.38.676 1.064.452 1.988 1.07 2.78 1.86.786.788 1.405 1.713 1.856 2.775.453 1.062.678 2.19.678 3.382v13.28c0 .42-.147.772-.436 1.062-.29.288-.646.432-1.062.432-.418 0-.774-.144-1.06-.433-.294-.29-.438-.644-.438-1.063v-13.28c0-.774-.153-1.507-.457-2.198-.306-.694-.718-1.296-1.232-1.812-.517-.515-1.117-.917-1.81-1.207-.694-.29-1.426-.435-2.198-.435-.775 0-1.498.146-2.173.436-.674.29-1.27.676-1.786 1.16-.514.483-.917 1.053-1.206 1.714-.29.66-.453 1.36-.486 2.1v13.523c0 .42-.14.772-.435 1.062-.288.288-.64.432-1.06.432-.42 0-.77-.144-1.064-.433-.29-.29-.432-.644-.432-1.063V15.12" fill="#E36745"/><path d="M352.056 15.616c0-4.556-3.692-8.25-8.252-8.25h-48.31c-4.56 0-8.253 3.694-8.253 8.25V63.93c0 4.56 3.695 8.252 8.254 8.252h48.31c4.56 0 8.252-3.693 8.252-8.252V15.616z" stroke="#E36745" stroke-width="3.549"/><path d="M334.108 25.976c3.347 3.496 5.314 7.96 5.652 12.73l6.41-.053c-.357-6.41-2.95-12.42-7.437-17.107-4.45-4.647-10.278-7.49-16.605-8.158l-.332 6.402c4.688.576 9 2.727 12.312 6.186M319.24 13.228c-6.98 0-13.573 2.648-18.63 7.492l4.43 4.625c3.793-3.637 8.71-5.638 13.958-5.69l.335-6.425-.092-.002M333.474 55.045l4.425 4.625c2.36-2.256 4.252-4.873 5.635-7.728l-6.19-1.984c-1.008 1.86-2.3 3.582-3.87 5.087M346.184 41.453l-6.433.053c-.128 2.04-.55 4.012-1.25 5.88l6.125 1.965c.902-2.51 1.43-5.163 1.56-7.897" fill="#E36745"/><path d="M328.564 34.567c.786 1.287 1.288 2.72 1.492 4.22l6.44-.054c-.277-3.18-1.42-6.18-3.313-8.746l-4.62 4.58M326.772 48.224l4.43 4.625c3.143-3.012 4.993-7.005 5.303-11.316l-6.416.053c-.3 2.528-1.456 4.853-3.318 6.637M307.13 27.71l4.43 4.624c1.902-1.82 4.318-2.87 6.936-3.026l.334-6.41c-4.38.074-8.516 1.763-11.7 4.812M331.342 27.868c-2.672-2.623-6.048-4.29-9.716-4.804l-.334 6.43c2.07.403 3.964 1.392 5.505 2.88l4.545-4.506" fill="#E36745"/><path d="M319.164 39.944l-.16.16.162.007-.002-.166" fill="#FFF"/></g></svg>