<svg width="151" height="66" viewBox="0 0 151 66" xmlns="http://www.w3.org/2000/svg"><g fill="#FFF" fill-rule="evenodd"><path d="M77.415 21.267c-1.692 0-2.826-1.208-2.826-2.776 0-1.568 1.133-2.773 2.825-2.773 1.688 0 2.817 1.212 2.817 2.774 0 1.57-1.128 2.777-2.817 2.777zm0-4.51c-.97 0-1.536.655-1.536 1.733 0 1.088.565 1.733 1.535 1.733.96 0 1.528-.645 1.528-1.733 0-1.078-.566-1.733-1.528-1.733zM83.73 19.392v1.815h-1.26v-5.43h1.915c1.53 0 2.184.77 2.184 1.773 0 1.085-.682 1.842-2.185 1.842h-.655zm0-.95h.656c.657 0 .924-.328.924-.892 0-.495-.29-.83-.924-.83h-.655v1.722zM92.363 15.776v.97h-2.23v1.267h1.708v.932h-1.706v1.293h2.23v.97h-3.497v-5.432h3.496zM96.09 15.97l2.58 3.26c-.018-.207-.03-.405-.03-.58v-2.874h1.11v5.43h-.655c-.194 0-.317-.047-.44-.207l-2.56-3.237c.015.19.026.373.026.533v2.91h-1.11v-5.43h.664c.216 0 .28.026.417.194zM76.133 28.048h.2c.188 0 .322-.06.404-.175L77.96 26.1c.134-.195.295-.25.544-.25H79.6l-1.61 2.194c-.115.16-.24.258-.37.328.192.07.344.182.474.388l1.64 2.52H78.61c-.288 0-.392-.082-.494-.232l-1.23-1.89c-.09-.138-.213-.19-.448-.19h-.305v2.312h-1.26v-5.43h1.26v2.198zM83.208 26.042l2.58 3.262c-.02-.208-.03-.406-.03-.58v-2.875h1.11v5.43h-.656c-.193 0-.316-.048-.44-.21l-2.56-3.234c.014.19.025.373.025.533v2.91h-1.11v-5.43h.663c.217 0 .28.025.418.192zM92.095 31.34c-1.692 0-2.825-1.21-2.825-2.778s1.133-2.773 2.825-2.773c1.69 0 2.818 1.21 2.818 2.772 0 1.57-1.13 2.777-2.818 2.777zm0-4.51c-.97 0-1.535.655-1.535 1.732 0 1.09.566 1.733 1.535 1.733.962 0 1.53-.644 1.53-1.733-.002-1.077-.568-1.733-1.53-1.733zM96.292 25.85h1.06c.218 0 .372.107.416.272l.745 2.832c.05.183.105.395.13.623.05-.235.113-.44.168-.623l.88-2.832c.046-.14.203-.272.41-.272h.374c.22 0 .362.104.418.273l.872 2.832c.056.176.12.37.165.593.04-.22.08-.417.125-.593l.746-2.832c.042-.146.202-.272.41-.272h.992l-1.677 5.432h-1.14l-1.022-3.366c-.033-.104-.074-.232-.108-.37-.033.14-.075.266-.11.37l-1.035 3.366h-1.14L96.29 25.85zM107.737 30.273h2.013v1.007h-3.273v-5.43h1.26v4.423zM115.923 25.85v.968h-2.23v1.267h1.707v.932h-1.707v1.294h2.23v.97h-3.497v-5.43h3.497zM120.68 31.28h-2.11v-5.43h2.11c1.69 0 2.817 1.15 2.817 2.712 0 1.57-1.13 2.718-2.817 2.718zm0-4.462h-.842v3.493h.842c.96 0 1.528-.663 1.528-1.748 0-1.077-.567-1.744-1.528-1.744zM129.142 30.206v-.824h-.536c-.16 0-.254-.093-.254-.223v-.695h1.93v2.293c-.555.406-1.192.58-2.08.58-1.587 0-2.773-1.184-2.773-2.776 0-1.62 1.118-2.773 2.87-2.773.908 0 1.584.312 2.02.73l-.366.555c-.07.104-.168.167-.283.167-.073 0-.15-.026-.23-.074-.4-.238-.68-.34-1.185-.34-.94 0-1.536.695-1.536 1.734 0 1.148.67 1.81 1.58 1.81.346 0 .603-.065.842-.166zM136.33 25.85v.968h-2.23v1.267h1.707v.932H134.1v1.294h2.23v.97h-3.498v-5.43h3.497zM78.37 35.92v.97h-2.23v1.375h1.857v.974H76.14v2.113h-1.267V35.92h3.497zM86.622 38.634c0 .393-.068.758-.203 1.096-.136.338-.327.63-.573.882-.246.25-.543.445-.89.587-.346.14-.73.212-1.153.212-.423 0-.808-.07-1.156-.213-.348-.142-.645-.338-.893-.588-.248-.25-.44-.543-.574-.882-.135-.338-.202-.704-.202-1.096 0-.393.067-.758.204-1.096.135-.338.326-.632.574-.88.248-.248.545-.444.893-.585.347-.14.732-.212 1.155-.212.423 0 .807.072 1.154.215.345.143.642.34.888.588.245.248.437.542.572.88.135.337.202.7.202 1.09zm-1.29 0c0-.268-.034-.51-.103-.725-.07-.216-.17-.397-.3-.547-.13-.15-.29-.263-.48-.343-.188-.08-.404-.12-.644-.12-.244 0-.46.04-.65.12-.19.08-.352.194-.482.343-.13.15-.23.332-.3.546-.07.215-.104.457-.104.724 0 .27.035.514.104.73.07.214.17.396.3.545.13.15.29.262.48.34.192.078.408.117.652.117.24 0 .456-.04.644-.117.19-.078.35-.192.48-.34.13-.15.23-.332.3-.547.068-.215.103-.458.103-.73zM91.722 40.356c.17 0 .32-.028.454-.084.133-.056.245-.136.337-.24.093-.105.163-.232.21-.382.05-.15.074-.32.074-.513V35.92h1.26v3.217c0 .333-.054.64-.162.918-.11.278-.263.518-.465.72-.2.2-.446.357-.734.47-.29.112-.613.167-.974.167-.362 0-.688-.056-.976-.168-.288-.112-.533-.268-.735-.47-.2-.2-.353-.44-.46-.72-.108-.277-.16-.583-.16-.917V35.92h1.26v3.213c0 .192.023.362.072.513.048.15.118.278.21.383.093.105.205.186.338.242.133.056.283.084.452.084zM97.914 35.928c.037.005.07.014.1.028s.058.033.087.058c.028.025.06.058.094.1l2.58 3.262c-.01-.104-.017-.206-.022-.304-.005-.098-.008-.19-.008-.277V35.92h1.11v5.433h-.655c-.098 0-.18-.015-.247-.046-.067-.03-.13-.084-.193-.164l-2.56-3.236.018.278c.005.09.008.177.008.256v2.913h-1.11V35.92h.663c.05 0 .097.003.134.008zM109.914 38.634c0 .393-.068.755-.203 1.087-.134.333-.325.62-.57.862-.247.242-.544.43-.89.566-.347.135-.732.204-1.154.204h-2.11V35.92h2.11c.423 0 .807.068 1.153.205.346.138.643.326.89.567.245.24.436.527.57.86.136.33.204.692.204 1.082zm-1.29 0c0-.268-.035-.51-.104-.727-.07-.216-.17-.4-.3-.55-.13-.15-.29-.265-.48-.347-.187-.08-.403-.12-.643-.12h-.842v3.492h.842c.24 0 .456-.04.645-.12.19-.082.35-.197.48-.348.13-.15.23-.334.3-.55.067-.216.102-.46.102-.73zM117.81 41.352h-.977c-.11 0-.2-.025-.27-.077-.07-.05-.12-.116-.147-.195l-.32-.947h-2.066l-.32.947c-.026.07-.074.132-.146.188-.072.057-.16.085-.265.085h-.985l2.103-5.432h1.29l2.1 5.432zm-3.49-2.076h1.484l-.5-1.488c-.03-.094-.07-.205-.112-.334-.044-.128-.086-.266-.128-.416-.04.152-.082.292-.124.42-.042.13-.08.242-.12.337l-.5 1.48zM124.43 35.92v1h-1.53v4.433h-1.26V36.92h-1.528v-1h4.318zM128.568 41.352H127.3V35.92h1.268v5.432zM137.172 38.634c0 .393-.068.758-.204 1.096-.135.338-.326.63-.572.882-.246.25-.542.445-.89.587-.346.14-.73.212-1.153.212-.422 0-.808-.07-1.156-.213-.347-.142-.645-.338-.893-.588-.247-.25-.438-.543-.574-.882-.135-.338-.204-.704-.204-1.096 0-.393.07-.758.204-1.096.135-.338.327-.632.574-.88.248-.248.546-.444.893-.585.348-.14.733-.212 1.156-.212.423 0 .807.072 1.154.215.347.143.642.34.89.588.245.248.436.542.57.88.138.337.205.7.205 1.09zm-1.29 0c0-.268-.035-.51-.105-.725-.07-.216-.17-.397-.3-.547-.13-.15-.29-.263-.478-.343-.19-.08-.405-.12-.647-.12-.243 0-.46.04-.65.12-.19.08-.35.194-.482.343-.13.15-.23.332-.298.546-.07.215-.105.457-.105.724 0 .27.036.514.105.73.07.214.17.396.3.545.13.15.29.262.48.34.19.078.408.117.65.117.242 0 .457-.04.647-.117.187-.078.347-.192.478-.34.13-.15.23-.332.3-.547.07-.215.104-.458.104-.73zM140.813 35.928c.037.005.07.014.1.028s.06.033.086.058c.026.025.057.058.092.1l2.58 3.262c-.01-.104-.018-.206-.023-.304-.006-.098-.008-.19-.008-.277V35.92h1.11v5.433h-.655c-.097 0-.178-.015-.246-.046-.066-.03-.13-.084-.192-.164l-2.56-3.236.018.278c.005.09.007.177.007.256v2.913h-1.11V35.92h.663c.054 0 .1.003.137.008zM49.13 17.063l-1.686-1.26L57.88 1.836l1.686 1.26zM45.96 14.884l-1.887-.94 3.746-7.518 1.884.94zM42.446 13.306l-2.023-.587L44.106.04l2.023.586zM37.476 3.815l2.096.217-.864 8.35-2.095-.216.863-8.35zM34.147 2.76l.718 9.38-2.1.162-.718-9.38 2.1-.16zM29.41 6.36l1.63 6.23-2.037.532-1.63-6.23 2.037-.532zM25.447 14.602l-1.82-3.913 1.908-.89 1.82 3.913zM22.958 14.094l.975 1.384-1.72 1.214-.975-1.383 1.72-1.216zM15.94 12.974l4.94 4.85-1.475 1.503-4.94-4.85 1.476-1.503zM10.652 15.436l7.643 5.242-1.184 1.742-7.642-5.24 1.184-1.744zM11.448 21.813l4.813 2.135-.853 1.924-4.813-2.133.854-1.927zM14.844 27.528L.588 24.074.092 26.12l14.257 3.455.494-2.047zM13.968 33.406l-10.636-.62.122-2.103 10.636.62zM3.964 38.5l-.254-2.09 10.31-1.257.254 2.09zM12.958 41.682l-.624-2.01 2.306-.717.624 2.012zM9.15 48.486l-.974-1.867 7.75-4.038.972 1.867zM11.69 53.362l-1.29-1.664 7.44-5.774 1.292 1.664zM15.76 57.11l-1.567-1.406 6.13-6.834 1.57 1.406zM22.86 56.037l-1.794-1.104 2.222-3.61 1.794 1.104zM26.65 53.21l1.96.765-3.002 7.687-1.96-.766 3-7.687zM30.905 62.3l-2.067-.403 1.45-7.432 2.068.403zM34.094 55.05l2.106.028-.07 5.267-2.105-.028.07-5.267zM40.02 54.597l1.686 10.046-2.076.348-1.685-10.043 2.076-.35zM43.802 59.948l-2.085-5.79 1.98-.713 2.086 5.79zM54.743 64.68l-7.64-13.028-1.822 1.055 7.64 13.03 1.823-1.057zM50.095 49.234l1.165 1.195-1.523 1.455-1.163-1.194 1.52-1.456zM52.698 46.405l5.252 4.303-1.336 1.63-5.25-4.305 1.334-1.628zM54.705 43.118l5.364 2.978-1.024 1.842-5.363-2.98 1.022-1.84zM56.092 39.525l2.59.88-.676 1.995-2.59-.88.676-1.995zM64.622 39.037l-8.118-1.21.31-2.082 8.118 1.21zM62.06 31.73l.07 2.104-5.21.164-.067-2.105 5.208-.164zM56.64 30.156l-.442-2.06 6.442-1.38.44 2.06zM59.04 22.77l.8 1.945-4.154 1.712-.8-1.947 4.153-1.71zM63.94 14.102l1.137 1.773-11 7.054-1.136-1.775 11-7.053zM52.097 16.684l1.434 1.54-1.66 1.55-1.434-1.542 1.66-1.548zM33.823 32.012c-.17-.195-.375-.343-.62-.448-.242-.104-.52-.156-.83-.156h-1.088v4.51h1.087c.31 0 .59-.053.833-.158.244-.104.45-.253.62-.447.167-.193.297-.43.386-.71.09-.278.136-.593.136-.943 0-.346-.045-.66-.134-.938-.09-.28-.22-.516-.39-.71z"/><path d="M48.685 34.033l-.047-1.543-4.678.143 4.578-.975-.322-1.51-4.58.976 4.332-1.777-.586-1.428-4.327 1.775 3.94-2.52-.83-1.3-3.946 2.52 3.43-3.185-1.05-1.13-3.43 3.184 2.807-3.745-1.236-.928-2.807 3.746 2.094-4.187-1.38-.69-2.094 4.188 1.313-4.494-1.48-.433-1.315 4.495.492-4.655-1.536-.162-.507 4.82-.38-4.832-1.538.12.365 4.665-1.192-4.523-1.493.393 1.193 4.527-1.98-4.242-1.4.654 1.98 4.24-2.708-3.82-1.26.892 2.707 3.82-3.345-3.276-1.08 1.103 3.342 3.274-3.874-2.627-.866 1.278 3.876 2.628-4.282-1.893-.625 1.412 4.283 1.893-4.55-1.098-.362 1.5 4.55 1.098-4.672-.268-.088 1.54 4.675.27-4.647.57.19 1.533 4.647-.57-4.472 1.39.458 1.474 4.47-1.39-4.15 2.165.716 1.37 4.15-2.167-3.697 2.87.946 1.22 3.697-2.87-3.126 3.485 1.15 1.03 3.124-3.484-2.45 3.986 1.314.81 2.453-3.988-1.703 4.36 1.44.562 1.702-4.36-.897 4.595 1.514.295.897-4.593-.06 4.68 1.543.02.062-4.682.775 4.62 1.523-.257-.774-4.616 1.583 4.404 1.453-.523-1.585-4.404 2.347 4.05 1.336-.772-2.346-4.05 3.03 3.567 1.177-1-3.03-3.566 3.618 2.97.98-1.194-3.622-2.97 4.094 2.276.75-1.35-4.09-2.274 4.43 1.508.5-1.46-4.434-1.51 4.63.694.23-1.527-4.63-.694 4.675-.147zm-12.938 1.03c-.174.427-.42.798-.738 1.11-.32.313-.7.557-1.15.732-.446.176-.943.263-1.488.263H29.65v-7.01h2.722c.546 0 1.042.087 1.49.264.448.176.83.42 1.148.732.317.31.563.68.738 1.108.176.428.263.894.263 1.397 0 .507-.088.974-.263 1.402zm5.554-3.655h-2.875v1.636h2.203v1.203h-2.203v1.67H41.3v1.25h-4.51v-7.01h4.51v1.25zM79.367 47.527c0 .398-.063.76-.19 1.087-.125.327-.303.605-.533.838-.23.232-.506.412-.827.54-.322.126-.678.19-1.068.19h-1.99v-5.314h1.99c.39 0 .746.064 1.068.19.32.13.597.31.827.543.23.234.408.514.534.84.125.327.187.69.187 1.087zm-.738 0c0-.327-.046-.618-.135-.875-.09-.257-.215-.475-.378-.652-.163-.178-.36-.314-.593-.408-.233-.095-.49-.14-.775-.14h-1.266v4.15h1.265c.284 0 .54-.048.774-.142.233-.094.43-.23.593-.406.164-.177.29-.394.378-.65.088-.257.134-.55.134-.877zM85.817 44.868v.586h-2.552v1.765h2.065v.563h-2.065v1.813h2.552v.586h-3.275v-5.314h3.275zM91.112 49.61c.22 0 .417-.036.59-.11.173-.074.32-.178.44-.312.12-.133.21-.293.274-.478.063-.185.094-.39.094-.61v-3.232h.716v3.23c0 .307-.05.592-.146.854-.098.262-.238.49-.42.68-.18.192-.403.342-.665.45-.262.11-.556.165-.883.165-.327 0-.62-.055-.883-.164-.264-.11-.485-.258-.67-.45-.18-.19-.32-.418-.42-.68-.097-.262-.146-.547-.146-.853v-3.23h.716v3.226c0 .222.03.427.094.61.063.186.154.346.275.48.12.132.265.238.44.313.175.074.373.11.592.11zM100.277 44.868v.604H98.56v4.71h-.72v-4.71h-1.724v-.604h4.16zM105.95 45.7c-.02.036-.045.064-.07.082-.024.02-.056.028-.095.028-.042 0-.092-.02-.147-.063-.056-.042-.126-.088-.21-.14-.086-.05-.19-.097-.31-.14-.12-.04-.265-.062-.435-.062-.16 0-.303.022-.427.065-.123.043-.226.103-.31.177-.083.074-.145.16-.187.26-.043.102-.064.21-.064.326 0 .148.036.272.11.37.072.097.168.18.29.25.12.07.254.13.407.18.152.05.307.103.467.157.16.054.315.116.467.184.152.068.288.154.408.257.12.106.216.233.29.383.073.15.11.336.11.557 0 .232-.04.45-.12.654-.08.204-.194.382-.346.532-.154.152-.34.27-.562.356-.22.086-.473.13-.754.13-.344 0-.657-.062-.94-.187-.284-.125-.526-.294-.725-.506l.206-.342c.02-.027.044-.05.072-.07.028-.017.06-.027.094-.027.053 0 .112.03.18.084.066.056.15.117.25.184.1.067.22.128.363.183.143.056.316.084.522.084.17 0 .322-.023.456-.07.133-.047.246-.113.34-.198.093-.086.164-.188.213-.306.05-.118.074-.25.074-.397 0-.16-.036-.293-.11-.395-.072-.102-.168-.19-.287-.258-.118-.07-.253-.128-.406-.176l-.467-.148c-.16-.052-.315-.11-.467-.177-.152-.068-.288-.154-.406-.26-.12-.107-.214-.24-.288-.4-.074-.16-.11-.356-.11-.59 0-.188.036-.37.11-.546.073-.176.178-.33.316-.467.138-.136.31-.245.514-.327.205-.08.438-.122.703-.122.297 0 .567.047.812.14.245.095.458.23.64.41l-.174.34zM113.1 49.085c.04 0 .076.016.108.048l.282.308c-.218.253-.48.45-.792.59-.31.14-.685.212-1.122.212-.383 0-.73-.067-1.042-.2-.312-.13-.578-.317-.797-.555-.22-.24-.39-.524-.512-.858-.122-.335-.182-.702-.182-1.103 0-.4.065-.768.195-1.1.13-.335.312-.622.547-.86.236-.24.516-.427.844-.56.327-.132.69-.198 1.084-.198.39 0 .727.06 1.01.18.283.12.534.286.755.493l-.235.33c-.017.025-.037.045-.06.06-.02.017-.053.025-.095.025-.032 0-.066-.012-.102-.035-.036-.023-.08-.052-.13-.087-.048-.034-.106-.07-.173-.11-.067-.04-.146-.077-.238-.112-.09-.036-.197-.064-.318-.088-.123-.024-.262-.035-.42-.035-.285 0-.545.05-.78.148-.238.098-.44.236-.612.417-.17.18-.303.4-.4.66-.094.26-.142.55-.142.872 0 .332.048.627.143.886.095.26.224.48.39.66.164.178.358.315.584.41.224.093.467.14.726.14.16 0 .3-.01.426-.028.126-.02.243-.048.35-.087.11-.04.21-.09.302-.15s.186-.134.28-.217c.043-.036.084-.055.123-.055zM120.94 50.182h-.72v-2.417h-2.864v2.417h-.723v-5.314h.724v2.37h2.863v-2.37h.723v5.314h-.002zM125.154 49.578h2.3v.604h-3.02v-5.314h.72v4.71zM134.816 50.182h-.556c-.064 0-.116-.016-.156-.048-.04-.032-.07-.073-.09-.122l-.496-1.283h-2.385l-.497 1.282c-.017.044-.047.084-.09.12-.04.034-.093.05-.154.05h-.557l2.125-5.313h.73l2.126 5.312zm-3.482-1.972h1.985l-.836-2.162c-.054-.134-.108-.3-.16-.5-.027.1-.054.194-.08.28-.026.084-.05.16-.076.224l-.834 2.158zM138.196 44.892c.03.016.066.05.106.098l3.08 4.006c-.008-.065-.013-.127-.016-.188-.002-.06-.004-.12-.004-.176v-3.765h.63v5.314h-.363c-.058 0-.105-.01-.144-.03-.038-.02-.076-.052-.113-.1l-3.075-4c.005.062.01.122.01.18.003.06.005.115.005.164v3.787h-.63v-5.313h.37c.065 0 .113.01.143.025zM150.092 47.527c0 .398-.063.76-.19 1.087-.126.327-.303.605-.533.838-.232.232-.507.412-.828.54-.32.126-.678.19-1.068.19h-1.988v-5.314h1.988c.39 0 .747.064 1.068.19.32.13.597.31.827.543.23.234.406.514.533.84.126.327.19.69.19 1.087zm-.738 0c0-.327-.044-.618-.133-.875-.088-.257-.214-.475-.377-.652-.163-.178-.36-.314-.593-.408-.233-.095-.49-.14-.775-.14h-1.265v4.15h1.265c.285 0 .542-.048.775-.142.232-.094.43-.23.593-.406.164-.177.29-.394.378-.65.09-.258.134-.55.134-.877z"/></g></svg>