<svg xmlns="http://www.w3.org/2000/svg" width="195" height="30" viewBox="0 0 195 30"><g fill="none" fill-rule="evenodd"><path fill="#F2FF2A" d="M9 9h178v15H9z"/><path fill="#000" d="M3.49804688 16.9453125l3.9453125-.3710937c.16276123.4687523.39062353.8040354.68359374 1.0058593.29297022.201824.6835913.3027344 1.171875.3027344.53385684 0 .94726417-.1139312 1.24023438-.3417969.22786572-.1692717.34179688-.3808581.34179688-.6347656 0-.2864598-.1497381-.5078117-.44921876-.6640625-.21484482-.1106776-.78450058-.247395-1.70898437-.4101563-1.38021523-.2408866-2.3388645-.4638661-2.87597656-.6689453-.53711207-.2050791-.9895815-.55175533-1.3574219-1.04003902-.36784037-.4882837-.5517578-1.04491876-.5517578-1.66992188 0-.68359717.19856572-1.27278398.59570312-1.76757812.3971374-.49479415.94400694-.8642566 1.640625-1.10839844.69661807-.24414185 1.63085352-.36621094 2.80273438-.36621094 1.23698535 0 2.15006216.0944001 2.7392578.28320312.58919567.18880303 1.0807272.48176885 1.4746094.87890626.3938822.3971374.7210273.9342414.9814453 1.61132812l-3.76953125.37109375c-.09765674-.3320329-.26041553-.5761711-.48828125-.73242187-.31250156-.20833438-.69010195-.3125-1.1328125-.3125-.449221 0-.77636616.0797518-.9814453.2392578-.20507916.159506-.3076172.35318897-.3076172.5810547 0 .2539075.13020703.4459629.390625.57617187.26041797.13020898.82681855.2473953 1.69921875.3515625 1.3216212.14974033 2.30468428.35807158 2.94921875.625.6445345.26692842 1.1376936.64778398 1.4794922 1.14257813.3417986.49479412.5126953 1.03840852.5126953 1.63085932 0 .5989614-.1806623 1.1816378-.5419922 1.7480469-.3613299.5664091-.9309857 1.017251-1.70898436 1.3525391-.77799868.3352881-1.8375584.5029297-3.17871094.5029297-1.89454072 0-3.24381108-.2701796-4.04785156-.8105469-.80404048-.5403673-1.31998584-1.3085888-1.54785157-2.3046875zM21.4628906 5.5v3.9453125h2.1875v2.90039062h-2.1875v3.68164068c0 .4427105.0423173.7356763.1269532.8789062.1302089.2213553.3580712.3320312.6835937.3320312.2929702 0 .7031224-.0846345 1.2304687-.2539062l.2929688 2.7441406c-.9830778.2148448-1.9010374.3222656-2.7539062.3222656-.9895883 0-1.7187477-.1269518-2.1875-.3808593-.4687524-.2539075-.8154286-.6396459-1.0400391-1.1572266-.2246105-.5175807-.3369141-1.3557885-.3369141-2.5146484v-3.65234378h-1.4648437V9.4453125h1.4648437V7.54101562L21.4628906 5.5zm15.8457032 10.1171875h-7.96875c.0716149.638024.2441392 1.1132797.5175781 1.4257813.3841165.4492209.8854135.6738281 1.5039062.6738281.390627 0 .761717-.0976553 1.1132813-.2929688.2148448-.1236985.4459623-.3417953.6933594-.6542969l3.9160156.3613282c-.5989614 1.0416718-1.3216104 1.7887347-2.1679688 2.2412109-.8463584.4524762-2.0605389.6787109-3.6425781.6787109-1.3737048 0-2.4544231-.1936829-3.2421875-.5810546-.7877644-.3873718-1.4404271-1.0026-1.9580078-1.8457032-.5175807-.8431031-.7763672-1.8343042-.7763672-2.97363278 0-1.62110185.5192005-2.9329377 1.5576172-3.93554687C27.8929088 9.71223457 29.3268138 9.2109375 31.15625 9.2109375c1.4843824 0 2.6562457.22460713 3.515625.67382812.8593793.449221 1.5136696 1.10025616 1.9628906 1.953125.449221.85286885.6738282 1.9628838.6738282 3.33007818v.4492187zm-4.0429688-1.90429688c-.0781254-.768233-.2848291-1.3183577-.6201172-1.65039062-.3352881-.3320329-.7763644-.49804688-1.3232422-.49804688-.6315135 0-1.1360658.25064854-1.5136718.75195313-.2408867.31250156-.3938799.7779917-.4589844 1.39648437h3.9160156zM39.5214844 5.5h3.984375v14.3164063h-3.984375V5.5zm6.9101562 0h3.984375v14.3164063h-3.984375V5.5zm17.7011719 14.3164062H60.421875v-1.6796874c-.5533882.6901076-1.1116508 1.1816391-1.6748047 1.4746093-.5631538.2929702-1.2548787.4394531-2.0751953.4394531-1.0937555 0-1.9514943-.3271451-2.5732422-.9814453-.6217479-.6543001-.9326172-1.661777-.9326172-3.0224609V9.4453125h3.9941406v5.703125c0 .6510449.1204416 1.1132799.3613282 1.3867187.2408866.2734389.5794249.4101563 1.015625.4101563.4752628 0 .8642563-.1822898 1.1669922-.546875.3027359-.3645852.4541015-1.0188755.4541015-1.96289062V9.4453125h3.9746094v10.3710937zm2.6621094-10.3710937h3.7011719v1.68945312c.5533881-.6901076 1.1132784-1.18326674 1.6796874-1.47949218.5664091-.29622544 1.2565064-.44433594 2.0703126-.44433594 1.1002659 0 1.9612599.32714517 2.5830078.9814453.6217479.65430016.9326172 1.66503224.9326172 3.03222658v6.59179682h-3.9941407v-5.70312495c0-.65104492-.1204415-1.1116523-.3613281-1.38183594-.2408866-.27018363-.5794249-.40527342-1.015625-.40527342-.4817732 0-.8723943.18228984-1.171875.546875-.2994807.36458515-.4492188 1.01887548-.4492188 1.96289062v4.9804687h-3.9746093V9.4453125zm20.8066406 0h3.7207031v9.7949219l.0097656.4589844c0 .6510449-.1383449 1.2711559-.415039 1.8603515-.2766941.5891957-.644529 1.0660789-1.1035156 1.4306641-.4589867.3645851-1.0416632.6282544-1.7480469.7910156-.7063838.1627612-1.5152949.2441406-2.4267578.2441406-2.0833438 0-3.5139935-.3124969-4.2919922-.9375-.7779987-.6250031-1.1669922-1.4615833-1.1669922-2.5097656 0-.130209.0065104-.3059885.0195313-.5273438l3.8574218.4394532c.0976568.3580747.2473948.605468.4492188.7421875.2929702.2018239.6608051.3027343 1.1035156.3027343.5729195 0 1.0009751-.1529932 1.2841797-.4589843.2832045-.3059911.4248047-.83984.4248047-1.6015625v-1.5722656c-.390627.4622418-.7812481.797525-1.171875 1.0058593-.6119823.3255225-1.2727829.4882813-1.9824219.4882813-1.3867257 0-2.5065062-.6054627-3.359375-1.8164063-.6054718-.8593793-.9082031-1.9954356-.9082031-3.4082031 0-1.6145914.3906211-2.84504785 1.171875-3.69140625.7812539-.8463584 1.8033791-1.26953125 3.0664062-1.26953125.8072957 0 1.4729792.13671738 1.9970703.41015625.5240912.27343887 1.0139952.7259083 1.4697266 1.35742187V9.4453125zm-3.7402344 5.02929688c0 .74870162.1595036 1.30370912.4785157 1.66503902.319012.36133.7389296.5419922 1.2597656.5419922.4947941 0 .909829-.1871726 1.2451172-.5615234.3352881-.3743508.5029296-.9391238.5029296-1.69433595 0-.7552121-.1757794-1.3330058-.5273437-1.73339844-.3515643-.4003926-.7812475-.60058592-1.2890625-.60058592s-.9130844.18391743-1.2158203.5517578c-.3027359.3678404-.4541016.97818585-.4541016 1.8310547zM93.9746094 9.4453125h3.7011718v1.68945312c.5533882-.6901076 1.1132785-1.18326674 1.6796876-1.47949218.566409-.29622544 1.2565063-.44433594 2.0703124-.44433594 1.100266 0 1.9612598.32714517 2.5830078.9814453.621748.65430016.932617 1.66503224.932617 3.03222658v6.59179682h-3.9941404v-5.70312495c0-.65104492-.1204415-1.1116523-.3613281-1.38183594-.2408866-.27018363-.5794249-.40527342-1.015625-.40527342-.4817732 0-.8723943.18228984-1.171875.546875-.2994807.36458515-.4492187 1.01887548-.4492187 1.96289062v4.9804687h-3.9746094V9.4453125zm17.2128906 3.359375l-3.798828-.40039062c.14323-.66406583.349933-1.18652154.620117-1.56738282.270184-.38086128.659177-.71126162 1.166992-.99121094.364585-.20182392.865882-.35807236 1.503907-.46875.638024-.11067763 1.328121-.16601562 2.070312-.16601562 1.191412 0 2.148434.0667311 2.871094.2001953.72266.13346422 1.324867.41178175 1.80664.83496095.338544.2929702.605468.70800513.800782 1.2451172.195313.53711205.292968 1.04980223.292968 1.53808593V17.609375c0 .4882837.030925.8707668.092774 1.1474609.061849.2766941.196939.6298807.405273 1.0595703h-3.730469c-.14974-.2669284-.247395-.4703769-.292968-.6103515-.045573-.1399747-.091146-.359699-.136719-.6591797-.520836.5013046-1.038409.8593739-1.552734 1.0742188-.703129.2864597-1.520178.4296874-2.451172.4296874-1.236986 0-2.176104-.2864554-2.817383-.859375-.641279-.5729195-.961914-1.2792926-.961914-2.1191406 0-.7877643.231117-1.4355443.693359-1.9433594.462242-.507815 1.315098-.88541538 2.558594-1.13281245 1.490893-.29948066 2.45768-.5094395 2.900391-.6298828.44271-.12044332.911455-.27831935 1.40625-.47363283 0-.4882837-.100911-.83007714-.302735-1.02539062-.201824-.19531348-.556638-.29296875-1.064453-.29296875-.651045 0-1.139321.10416563-1.464844.3125-.253907.16276123-.458983.46874775-.615234.91796875zm3.447266 2.08984375c-.546878.19531345-1.116534.36783775-1.708985.51757815-.807295.2148448-1.318358.4264312-1.533203.6347656-.221355.2148448-.332031.458983-.332031.7324219 0 .3125015.109048.5680328.327148.7666015.2181.1985687.538735.2978516.961914.2978516.442711 0 .854491-.1074208 1.235352-.3222656s.651041-.4768865.810547-.7861328c.159506-.3092464.239258-.7112606.239258-1.2060547v-.63476565zM121.154297 5.5h3.974609v5.2734375c.540368-.55989863 1.077472-.96028525 1.611328-1.20117188.533857-.24088662 1.165361-.36132812 1.894532-.36132812 1.080734 0 1.931963.32877275 2.553711.98632812.621747.65755538.932617 1.66665987.932617 3.02734376v6.59179692h-3.994141v-5.70312505c0-.65104492-.120441-1.1116523-.361328-1.38183594-.240887-.27018363-.579425-.40527342-1.015625-.40527342-.481773 0-.872394.18228984-1.171875.546875-.299481.36458515-.449219 1.01887548-.449219 1.96289062v4.9804688h-3.974609V5.5zm13.599609 10.3320312h4.248047v3.984375h-4.248047v-3.984375zm6.929688-6.3867187h3.710937v1.51367188c.533857-.63151358 1.072589-1.08072784 1.616211-1.34765626.543623-.2669284 1.199541-.40039062 1.967774-.40039062.826827 0 1.481117.1464829 1.96289.43945312.481773.29297022.87565.72916377 1.181641 1.30859376.625003-.67708672 1.194659-1.1376941 1.708984-1.38183594.514326-.24414185 1.149085-.36621094 1.904297-.36621094 1.113287 0 1.982419.33040034 2.607422.99121094.625003.6608106.9375 1.6943289.9375 3.10058594v6.51367182h-3.984375v-5.90820308c0-.46875234-.091145-.81705615-.273437-1.04492187-.266929-.3580747-.598957-.53710937-.996094-.53710937-.468753 0-.846353.16926914-1.132813.5078125-.28646.33854335-.429687.8821577-.429687 1.63085937v5.35156245h-3.984375v-5.71289058c0-.45573144-.026042-.76497314-.078125-.92773437-.084636-.26041797-.231119-.4703768-.439453-.6298828-.208335-.15950602-.452473-.23925783-.732422-.23925783-.455732 0-.830077.17252432-1.123047.51757813-.29297.3450538-.439453.9114544-.439453 1.69921875v5.2929687h-3.984375V9.4453125zm31.734375 6.171875h-7.96875c.071615.638024.244139 1.1132797.517578 1.4257813.384116.4492209.885413.6738281 1.503906.6738281.390627 0 .761717-.0976553 1.113281-.2929688.214845-.1236985.445963-.3417953.69336-.6542969l3.916015.3613282c-.598961 1.0416718-1.32161 1.7887347-2.167968 2.2412109-.846359.4524762-2.060539.6787109-3.642579.6787109-1.373704 0-2.454423-.1936829-3.242187-.5810546-.787764-.3873718-1.440427-1.0026-1.958008-1.8457032-.517581-.8431031-.776367-1.8343042-.776367-2.97363278 0-1.62110185.519201-2.9329377 1.557617-3.93554687 1.038417-1.00260918 2.472322-1.50390625 4.301758-1.50390625 1.484382 0 2.656246.22460713 3.515625.67382812.859379.449221 1.51367 1.10025616 1.962891 1.953125.449221.85286885.673828 1.9628838.673828 3.33007818v.4492187zM169.375 13.71289062c-.078125-.768233-.284829-1.3183577-.620117-1.65039062-.335288-.3320329-.776365-.49804688-1.323242-.49804688-.631514 0-1.136066.25064854-1.513672.75195313-.240887.31250156-.39388.7779917-.458985 1.39648437H169.375z"/></g></svg>